<?xml version="1.0" encoding="utf-8"?>
<svg version="1.1" xmlns:xlink="http://www.w3.org/1999/xlink" width="300px" height="170px" xmlns="http://www.w3.org/2000/svg">
  <g transform="matrix(1 0 0 1 -53 -24 )">
    <path d="M 53 24  L 353 24  L 353 194  L 53 194  L 53 24  " fill-rule="nonzero" fill="#cccccc" stroke="none" />
    <path d="M 65 36  L 341 36  L 341 182  L 65 182  L 65 36  " fill-rule="nonzero" fill="#ffffff" stroke="none" />
    <path d="M 221.75 75  C 214.61 75  209 69.39  209 62.25  C 209 55.11  214.61 49.5  221.75 49.5  C 228.89 49.5  234.5 55.11  234.5 62.25  C 234.5 69.39  228.89 75  221.75 75  " fill-rule="nonzero" fill="#cccccc" stroke="none" />
    <path d="M 70 178  L 70 102.65  L 136.75 68.4  L 230.2 131.42  L 283.6 88.95  L 337 131.42  L 337 178  L 70 178  " fill-rule="nonzero" fill="#169bd5" stroke="none" />
  </g>
</svg>