<?xml version="1.0" encoding="utf-8"?>
<svg version="1.1" xmlns:xlink="http://www.w3.org/1999/xlink" width="6px" height="21px" xmlns="http://www.w3.org/2000/svg">
  <g transform="matrix(1 0 0 1 -187 -241 )">
    <path d="M 190 241  C 191.68 241  193 245.62  193 251.5  C 193 257.38  191.68 262  190 262  C 188.32 262  187 257.38  187 251.5  C 187 245.62  188.32 241  190 241  Z " fill-rule="nonzero" fill="#ffffff" stroke="none" />
    <path d="M 190 241.5  C 191.4 241.5  192.5 245.9  192.5 251.5  C 192.5 257.1  191.4 261.5  190 261.5  C 188.6 261.5  187.5 257.1  187.5 251.5  C 187.5 245.9  188.6 241.5  190 241.5  Z " stroke-width="1" stroke="#797979" fill="none" />
  </g>
</svg>